<svg width="107" height="16" viewBox="0 0 107 16" fill="none" xmlns="http://www.w3.org/2000/svg">
<path d="M7.08105 2.1413C7.42759 1.3338 8.57241 1.3338 8.91895 2.1413L9.9235 4.48207C10.0682 4.81925 10.386 5.05011 10.7514 5.08354L13.288 5.31559C14.1631 5.39564 14.5168 6.48442 13.8559 7.06354L11.9401 8.74226C11.6642 8.98408 11.5428 9.35761 11.6239 9.71546L12.1871 12.1996C12.3814 13.0566 11.4552 13.7295 10.7002 13.2799L8.51164 11.9767C8.19638 11.7889 7.80362 11.7889 7.48836 11.9767L5.29979 13.2799C4.54479 13.7295 3.61862 13.0566 3.8129 12.1996L4.37606 9.71546C4.45719 9.35761 4.33582 8.98408 4.05985 8.74226L2.14407 7.06354C1.48318 6.48442 1.83695 5.39564 2.71202 5.31559L5.24865 5.08354C5.61404 5.05011 5.93179 4.81925 6.0765 4.48207L7.08105 2.1413Z" fill="#F7C604"/>
<path d="M30.081 2.1413C30.4276 1.3338 31.5724 1.3338 31.919 2.1413L32.9235 4.48207C33.0682 4.81925 33.386 5.05011 33.7514 5.08354L36.288 5.31559C37.1631 5.39564 37.5168 6.48442 36.8559 7.06354L34.9401 8.74226C34.6642 8.98408 34.5428 9.35761 34.6239 9.71546L35.1871 12.1996C35.3814 13.0566 34.4552 13.7295 33.7002 13.2799L31.5116 11.9767C31.1964 11.7889 30.8036 11.7889 30.4884 11.9767L28.2998 13.2799C27.5448 13.7295 26.6186 13.0566 26.8129 12.1996L27.3761 9.71546C27.4572 9.35761 27.3358 8.98408 27.0599 8.74226L25.1441 7.06354C24.4832 6.48442 24.8369 5.39564 25.712 5.31559L28.2486 5.08354C28.614 5.05011 28.9318 4.81925 29.0765 4.48207L30.081 2.1413Z" fill="#F7C604"/>
<path d="M52.5901 1.99544C52.9459 1.21528 54.0541 1.21528 54.4099 1.99544L55.551 4.49795C55.7007 4.82624 56.0156 5.04843 56.3751 5.07938L59.1447 5.31784C60.037 5.39467 60.3861 6.51576 59.6951 7.08564L57.6929 8.7369C57.3978 8.98028 57.2674 9.37068 57.357 9.74256L57.96 12.2463C58.1644 13.0946 57.2601 13.7794 56.4989 13.3528L53.9889 11.946C53.6852 11.7758 53.3148 11.7758 53.0111 11.946L50.5011 13.3528C49.7399 13.7794 48.8356 13.0946 49.04 12.2463L49.643 9.74256C49.7326 9.37068 49.6022 8.98028 49.3071 8.7369L47.3049 7.08564C46.6139 6.51576 46.963 5.39467 47.8553 5.31784L50.6249 5.07938C50.9844 5.04843 51.2993 4.82624 51.449 4.49795L52.5901 1.99544Z" fill="#F7C604"/>
<path d="M75.081 2.1413C75.4276 1.3338 76.5724 1.3338 76.919 2.1413L77.9235 4.48207C78.0682 4.81925 78.386 5.05011 78.7514 5.08354L81.288 5.31559C82.1631 5.39564 82.5168 6.48442 81.8559 7.06354L79.9401 8.74226C79.6642 8.98408 79.5428 9.35761 79.6239 9.71546L80.1871 12.1996C80.3814 13.0566 79.4552 13.7295 78.7002 13.2799L76.5116 11.9767C76.1964 11.7889 75.8036 11.7889 75.4884 11.9767L73.2998 13.2799C72.5448 13.7295 71.6186 13.0566 71.8129 12.1996L72.3761 9.71546C72.4572 9.35761 72.3358 8.98408 72.0599 8.74226L70.1441 7.06354C69.4832 6.48442 69.8369 5.39564 70.712 5.31559L73.2486 5.08354C73.614 5.05011 73.9318 4.81925 74.0765 4.48207L75.081 2.1413Z" fill="#F7C604"/>
<path d="M98.081 2.1413C98.4276 1.3338 99.5724 1.3338 99.919 2.1413L100.924 4.48207C101.068 4.81925 101.386 5.05011 101.751 5.08354L104.288 5.31559C105.163 5.39564 105.517 6.48442 104.856 7.06354L102.94 8.74226C102.664 8.98408 102.543 9.35761 102.624 9.71546L103.187 12.1996C103.381 13.0566 102.455 13.7295 101.7 13.2799L99.5116 11.9767C99.1964 11.7889 98.8036 11.7889 98.4884 11.9767L96.2998 13.2799C95.5448 13.7295 94.6186 13.0566 94.8129 12.1996L95.3761 9.71546C95.4572 9.35761 95.3358 8.98408 95.0599 8.74226L93.1441 7.06354C92.4832 6.48442 92.8369 5.39564 93.712 5.31559L96.2486 5.08354C96.614 5.05011 96.9318 4.81925 97.0765 4.48207L98.081 2.1413Z" fill="#B9BBBD"/>
</svg>
