<svg width="24" height="24" viewBox="0 0 24 24" fill="none" xmlns="http://www.w3.org/2000/svg">
<path d="M11.9891 16.4717C11.758 16.4697 11.5368 16.378 11.372 16.216L2.64477 7.48874C2.48579 7.32414 2.39782 7.10368 2.39981 6.87486C2.4018 6.64603 2.49359 6.42714 2.6554 6.26533C2.81721 6.10352 3.0361 6.01174 3.26492 6.00975C3.49375 6.00776 3.7142 6.09573 3.8788 6.2547L11.9891 14.365L20.0993 6.2547C20.1798 6.17135 20.2761 6.10486 20.3826 6.05912C20.4891 6.01338 20.6036 5.98931 20.7195 5.9883C20.8354 5.98729 20.9503 6.00937 21.0575 6.05325C21.1648 6.09714 21.2622 6.16194 21.3442 6.24388C21.4261 6.32582 21.4909 6.42327 21.5348 6.53052C21.5787 6.63778 21.6008 6.7527 21.5997 6.86858C21.5987 6.98446 21.5747 7.09898 21.5289 7.20545C21.4832 7.31193 21.4167 7.40823 21.3333 7.48874L12.6061 16.216C12.4413 16.378 12.2201 16.4697 11.9891 16.4717Z" fill="#B9BBBD"/>
</svg>
