<svg width="17" height="15" viewBox="0 0 17 15" fill="none" xmlns="http://www.w3.org/2000/svg">
<path d="M15.8333 1.66667H0.833333C0.361111 1.66667 0 1.30555 0 0.833333C0 0.361111 0.361111 0 0.833333 0H15.8333C16.3056 0 16.6667 0.361111 16.6667 0.833333C16.6667 1.30555 16.3056 1.66667 15.8333 1.66667Z" fill="#464255"/>
<path d="M10.8333 6.11109H0.833333C0.361111 6.11109 0 5.74998 0 5.27776C0 4.80554 0.361111 4.44443 0.833333 4.44443H10.8333C11.3056 4.44443 11.6667 4.80554 11.6667 5.27776C11.6667 5.74998 11.3056 6.11109 10.8333 6.11109Z" fill="#464255"/>
<path d="M15.8333 10.5555H0.833333C0.361111 10.5555 0 10.1944 0 9.72219C0 9.24997 0.361111 8.88885 0.833333 8.88885H15.8333C16.3056 8.88885 16.6667 9.24997 16.6667 9.72219C16.6667 10.1944 16.3056 10.5555 15.8333 10.5555Z" fill="#464255"/>
<path d="M10.8333 15H0.833333C0.361111 15 0 14.6388 0 14.1666C0 13.6944 0.361111 13.3333 0.833333 13.3333H10.8333C11.3056 13.3333 11.6667 13.6944 11.6667 14.1666C11.6667 14.6388 11.3056 15 10.8333 15Z" fill="#464255"/>
</svg>
