<svg width="274" height="98" viewBox="0 0 274 98" fill="none" xmlns="http://www.w3.org/2000/svg">
<path d="M10.63 81.0497C10.69 80.9777 10.762 80.9417 10.846 80.9417H12.214C12.334 80.9417 12.394 81.0017 12.394 81.1217V93.3617C12.394 93.4817 12.334 93.5417 12.214 93.5417H10.846C10.726 93.5417 10.666 93.4817 10.666 93.3617V84.1457C10.666 84.1097 10.654 84.0857 10.63 84.0737C10.606 84.0617 10.588 84.0737 10.576 84.1097L8.002 88.0337C7.954 88.1057 7.882 88.1417 7.786 88.1417H7.102C7.018 88.1417 6.946 88.1057 6.886 88.0337L4.294 84.1457C4.282 84.1097 4.264 84.0977 4.24 84.1097C4.216 84.1217 4.204 84.1457 4.204 84.1817V93.3617C4.204 93.4817 4.144 93.5417 4.024 93.5417H2.656C2.536 93.5417 2.476 93.4817 2.476 93.3617V81.1217C2.476 81.0017 2.536 80.9417 2.656 80.9417H4.024C4.12 80.9417 4.192 80.9777 4.24 81.0497L7.39 85.7657C7.402 85.7777 7.42 85.7837 7.444 85.7837C7.468 85.7837 7.486 85.7777 7.498 85.7657L10.63 81.0497ZM18.8712 93.6857C17.9832 93.6857 17.2092 93.4637 16.5492 93.0197C15.8892 92.5637 15.4272 91.9337 15.1632 91.1297C14.9472 90.4817 14.8392 89.7497 14.8392 88.9337C14.8392 88.0817 14.9412 87.3617 15.1452 86.7737C15.4092 85.9817 15.8712 85.3637 16.5312 84.9197C17.1912 84.4637 17.9772 84.2357 18.8892 84.2357C19.7532 84.2357 20.5032 84.4637 21.1392 84.9197C21.7872 85.3637 22.2492 85.9757 22.5252 86.7557C22.7412 87.3677 22.8492 88.0877 22.8492 88.9157C22.8492 89.7557 22.7412 90.4937 22.5252 91.1297C22.2612 91.9337 21.8052 92.5637 21.1572 93.0197C20.5092 93.4637 19.7472 93.6857 18.8712 93.6857ZM18.8712 92.1917C19.3512 92.1917 19.7712 92.0597 20.1312 91.7957C20.4912 91.5197 20.7492 91.1357 20.9052 90.6437C21.0372 90.1877 21.1032 89.6237 21.1032 88.9517C21.1032 88.2797 21.0432 87.7217 20.9232 87.2777C20.7672 86.7857 20.5092 86.4077 20.1492 86.1437C19.7892 85.8677 19.3512 85.7297 18.8352 85.7297C18.3432 85.7297 17.9172 85.8677 17.5572 86.1437C17.1972 86.4077 16.9392 86.7857 16.7832 87.2777C16.6512 87.6977 16.5852 88.2557 16.5852 88.9517C16.5852 89.6477 16.6512 90.2117 16.7832 90.6437C16.9272 91.1357 17.1792 91.5197 17.5392 91.7957C17.9112 92.0597 18.3552 92.1917 18.8712 92.1917ZM30.7996 81.1217C30.7996 81.0017 30.8596 80.9417 30.9796 80.9417H32.3476C32.4676 80.9417 32.5276 81.0017 32.5276 81.1217V93.3617C32.5276 93.4817 32.4676 93.5417 32.3476 93.5417H30.9796C30.8596 93.5417 30.7996 93.4817 30.7996 93.3617V92.7677C30.7996 92.7437 30.7876 92.7257 30.7636 92.7137C30.7516 92.7017 30.7336 92.7077 30.7096 92.7317C30.4456 93.0317 30.1336 93.2657 29.7736 93.4337C29.4136 93.6017 29.0236 93.6857 28.6036 93.6857C27.7396 93.6857 27.0196 93.4757 26.4436 93.0557C25.8796 92.6237 25.4656 92.0177 25.2016 91.2377C24.9736 90.6017 24.8596 89.8337 24.8596 88.9337C24.8596 88.0937 24.9556 87.3677 25.1476 86.7557C25.3996 85.9637 25.8136 85.3457 26.3896 84.9017C26.9656 84.4577 27.7036 84.2357 28.6036 84.2357C29.0116 84.2357 29.3956 84.3197 29.7556 84.4877C30.1276 84.6437 30.4456 84.8717 30.7096 85.1717C30.7336 85.1957 30.7516 85.2017 30.7636 85.1897C30.7876 85.1777 30.7996 85.1597 30.7996 85.1357V81.1217ZM30.3496 91.2197C30.6256 90.7157 30.7636 89.9597 30.7636 88.9517C30.7636 87.9437 30.6136 87.1757 30.3136 86.6477C29.9656 86.0357 29.4556 85.7297 28.7836 85.7297C28.0636 85.7297 27.5296 86.0177 27.1816 86.5937C26.7976 87.1937 26.6056 87.9857 26.6056 88.9697C26.6056 89.8937 26.7556 90.6377 27.0556 91.2017C27.4036 91.8617 27.9736 92.1917 28.7656 92.1917C29.4616 92.1917 29.9896 91.8677 30.3496 91.2197ZM42.4768 87.8177C42.5248 88.3097 42.5428 88.8617 42.5308 89.4737C42.5308 89.5937 42.4708 89.6537 42.3508 89.6537H36.6088C36.5608 89.6537 36.5368 89.6777 36.5368 89.7257C36.5368 90.1337 36.5728 90.4457 36.6448 90.6617C36.7768 91.1417 37.0408 91.5197 37.4368 91.7957C37.8448 92.0597 38.3548 92.1917 38.9668 92.1917C39.8548 92.1917 40.5388 91.8257 41.0188 91.0937C41.0788 90.9737 41.1568 90.9557 41.2528 91.0397L42.2788 91.7237C42.3628 91.7957 42.3808 91.8737 42.3328 91.9577C41.9968 92.4977 41.5168 92.9237 40.8928 93.2357C40.2808 93.5477 39.5848 93.7037 38.8048 93.7037C37.9288 93.7037 37.1908 93.5117 36.5908 93.1277C35.9908 92.7437 35.5408 92.1977 35.2408 91.4897C34.9528 90.7817 34.8088 89.9237 34.8088 88.9157C34.8088 88.0397 34.8748 87.3737 35.0068 86.9177C35.2228 86.0897 35.6548 85.4357 36.3028 84.9557C36.9508 84.4757 37.7368 84.2357 38.6608 84.2357C39.8728 84.2357 40.7788 84.5417 41.3788 85.1537C41.9788 85.7537 42.3448 86.6417 42.4768 87.8177ZM38.6608 85.7297C38.1448 85.7297 37.7188 85.8617 37.3828 86.1257C37.0468 86.3777 36.8188 86.7197 36.6988 87.1517C36.6148 87.4157 36.5608 87.7517 36.5368 88.1597C36.5368 88.2077 36.5608 88.2317 36.6088 88.2317H40.7308C40.7788 88.2317 40.8028 88.2077 40.8028 88.1597C40.7788 87.7637 40.7428 87.4697 40.6948 87.2777C40.5748 86.8097 40.3348 86.4377 39.9748 86.1617C39.6268 85.8737 39.1888 85.7297 38.6608 85.7297ZM48.7252 84.2897C49.1092 84.2897 49.4572 84.3677 49.7692 84.5237C49.8532 84.5597 49.8832 84.6317 49.8592 84.7397L49.5712 86.0897C49.5592 86.1977 49.4872 86.2337 49.3552 86.1977C49.1512 86.1137 48.9112 86.0717 48.6352 86.0717L48.3832 86.0897C47.8192 86.1137 47.3512 86.3117 46.9792 86.6837C46.6192 87.0437 46.4392 87.5177 46.4392 88.1057V93.3617C46.4392 93.4817 46.3792 93.5417 46.2592 93.5417H44.8912C44.7712 93.5417 44.7112 93.4817 44.7112 93.3617V84.5597C44.7112 84.4397 44.7712 84.3797 44.8912 84.3797H46.2592C46.3792 84.3797 46.4392 84.4397 46.4392 84.5597V85.5137C46.4392 85.5497 46.4452 85.5737 46.4572 85.5857C46.4812 85.5857 46.4992 85.5737 46.5112 85.5497C47.0512 84.7097 47.7892 84.2897 48.7252 84.2897ZM55.4769 84.2537C56.4609 84.2537 57.2409 84.5417 57.8169 85.1177C58.3929 85.6817 58.6809 86.4497 58.6809 87.4217V93.3617C58.6809 93.4817 58.6209 93.5417 58.5009 93.5417H57.1329C57.0129 93.5417 56.9529 93.4817 56.9529 93.3617V87.7637C56.9529 87.1637 56.7789 86.6777 56.4309 86.3057C56.0829 85.9337 55.6209 85.7477 55.0449 85.7477C54.4809 85.7477 54.0189 85.9337 53.6589 86.3057C53.2989 86.6777 53.1189 87.1577 53.1189 87.7457V93.3617C53.1189 93.4817 53.0589 93.5417 52.9389 93.5417H51.5709C51.4509 93.5417 51.3909 93.4817 51.3909 93.3617V84.5597C51.3909 84.4397 51.4509 84.3797 51.5709 84.3797H52.9389C53.0589 84.3797 53.1189 84.4397 53.1189 84.5597V85.2077C53.1189 85.2317 53.1249 85.2497 53.1369 85.2617C53.1609 85.2737 53.1789 85.2677 53.1909 85.2437C53.7069 84.5837 54.4689 84.2537 55.4769 84.2537ZM72.6162 93.5417C72.5082 93.5417 72.4362 93.4937 72.4002 93.3977L71.7522 91.2917C71.7402 91.2557 71.7162 91.2377 71.6802 91.2377H66.6222C66.5862 91.2377 66.5622 91.2557 66.5502 91.2917L65.9022 93.3977C65.8662 93.4937 65.7942 93.5417 65.6862 93.5417H64.2282C64.0962 93.5417 64.0482 93.4757 64.0842 93.3437L68.0262 81.0857C68.0622 80.9897 68.1342 80.9417 68.2422 80.9417H70.0422C70.1502 80.9417 70.2222 80.9897 70.2582 81.0857L74.2362 93.3437L74.2542 93.4157C74.2542 93.4997 74.2002 93.5417 74.0922 93.5417H72.6162ZM67.0002 89.7797C66.9882 89.8037 66.9882 89.8277 67.0002 89.8517C67.0242 89.8637 67.0482 89.8697 67.0722 89.8697H71.2122C71.2362 89.8697 71.2542 89.8637 71.2662 89.8517C71.2902 89.8277 71.2962 89.8037 71.2842 89.7797L69.1962 83.1017C69.1842 83.0777 69.1662 83.0657 69.1422 83.0657C69.1182 83.0657 69.1002 83.0777 69.0882 83.1017L67.0002 89.7797ZM81.53 81.1217C81.53 81.0017 81.59 80.9417 81.71 80.9417H83.078C83.198 80.9417 83.258 81.0017 83.258 81.1217V93.3617C83.258 93.4817 83.198 93.5417 83.078 93.5417H81.71C81.59 93.5417 81.53 93.4817 81.53 93.3617V92.7677C81.53 92.7437 81.518 92.7257 81.494 92.7137C81.482 92.7017 81.464 92.7077 81.44 92.7317C81.176 93.0317 80.864 93.2657 80.504 93.4337C80.144 93.6017 79.754 93.6857 79.334 93.6857C78.47 93.6857 77.75 93.4757 77.174 93.0557C76.61 92.6237 76.196 92.0177 75.932 91.2377C75.704 90.6017 75.59 89.8337 75.59 88.9337C75.59 88.0937 75.686 87.3677 75.878 86.7557C76.13 85.9637 76.544 85.3457 77.12 84.9017C77.696 84.4577 78.434 84.2357 79.334 84.2357C79.742 84.2357 80.126 84.3197 80.486 84.4877C80.858 84.6437 81.176 84.8717 81.44 85.1717C81.464 85.1957 81.482 85.2017 81.494 85.1897C81.518 85.1777 81.53 85.1597 81.53 85.1357V81.1217ZM81.08 91.2197C81.356 90.7157 81.494 89.9597 81.494 88.9517C81.494 87.9437 81.344 87.1757 81.044 86.6477C80.696 86.0357 80.186 85.7297 79.514 85.7297C78.794 85.7297 78.26 86.0177 77.912 86.5937C77.528 87.1937 77.336 87.9857 77.336 88.9697C77.336 89.8937 77.486 90.6377 77.786 91.2017C78.134 91.8617 78.704 92.1917 79.496 92.1917C80.192 92.1917 80.72 91.8677 81.08 91.2197ZM95.3133 84.2537C96.2253 84.2537 96.9453 84.5297 97.4733 85.0817C98.0013 85.6217 98.2653 86.3777 98.2653 87.3497V93.3617C98.2653 93.4817 98.2053 93.5417 98.0853 93.5417H96.7353C96.6153 93.5417 96.5553 93.4817 96.5553 93.3617V87.7097C96.5553 87.1097 96.3873 86.6357 96.0513 86.2877C95.7273 85.9277 95.2893 85.7477 94.7373 85.7477C94.1853 85.7477 93.7353 85.9217 93.3873 86.2697C93.0393 86.6177 92.8653 87.0857 92.8653 87.6737V93.3617C92.8653 93.4817 92.8053 93.5417 92.6853 93.5417H91.3353C91.2153 93.5417 91.1553 93.4817 91.1553 93.3617V87.7097C91.1553 87.1097 90.9873 86.6357 90.6513 86.2877C90.3273 85.9277 89.8893 85.7477 89.3373 85.7477C88.7853 85.7477 88.3413 85.9217 88.0053 86.2697C87.6813 86.6177 87.5193 87.0857 87.5193 87.6737V93.3617C87.5193 93.4817 87.4593 93.5417 87.3393 93.5417H85.9713C85.8513 93.5417 85.7913 93.4817 85.7913 93.3617V84.5597C85.7913 84.4397 85.8513 84.3797 85.9713 84.3797H87.3393C87.4593 84.3797 87.5193 84.4397 87.5193 84.5597V85.1717C87.5193 85.1957 87.5253 85.2137 87.5373 85.2257C87.5613 85.2377 87.5853 85.2317 87.6093 85.2077C88.1373 84.5717 88.9053 84.2537 89.9133 84.2537C90.5253 84.2537 91.0473 84.3737 91.4793 84.6137C91.9113 84.8417 92.2473 85.1837 92.4873 85.6397C92.5233 85.6877 92.5593 85.6877 92.5953 85.6397C92.8833 85.1717 93.2613 84.8237 93.7293 84.5957C94.2093 84.3677 94.7373 84.2537 95.3133 84.2537ZM101.706 82.9397C101.37 82.9397 101.094 82.8317 100.878 82.6157C100.662 82.3997 100.554 82.1237 100.554 81.7877C100.554 81.4517 100.662 81.1757 100.878 80.9597C101.094 80.7437 101.37 80.6357 101.706 80.6357C102.042 80.6357 102.318 80.7437 102.534 80.9597C102.75 81.1757 102.858 81.4517 102.858 81.7877C102.858 82.1237 102.75 82.3997 102.534 82.6157C102.318 82.8317 102.042 82.9397 101.706 82.9397ZM100.986 93.5237C100.866 93.5237 100.806 93.4637 100.806 93.3437V84.5597C100.806 84.4397 100.866 84.3797 100.986 84.3797H102.354C102.474 84.3797 102.534 84.4397 102.534 84.5597V93.3437C102.534 93.4637 102.474 93.5237 102.354 93.5237H100.986ZM109.336 84.2537C110.32 84.2537 111.1 84.5417 111.676 85.1177C112.252 85.6817 112.54 86.4497 112.54 87.4217V93.3617C112.54 93.4817 112.48 93.5417 112.36 93.5417H110.992C110.872 93.5417 110.812 93.4817 110.812 93.3617V87.7637C110.812 87.1637 110.638 86.6777 110.29 86.3057C109.942 85.9337 109.48 85.7477 108.904 85.7477C108.34 85.7477 107.878 85.9337 107.518 86.3057C107.158 86.6777 106.978 87.1577 106.978 87.7457V93.3617C106.978 93.4817 106.918 93.5417 106.798 93.5417H105.43C105.31 93.5417 105.25 93.4817 105.25 93.3617V84.5597C105.25 84.4397 105.31 84.3797 105.43 84.3797H106.798C106.918 84.3797 106.978 84.4397 106.978 84.5597V85.2077C106.978 85.2317 106.984 85.2497 106.996 85.2617C107.02 85.2737 107.038 85.2677 107.05 85.2437C107.566 84.5837 108.328 84.2537 109.336 84.2537ZM119.006 93.5417C118.886 93.5417 118.826 93.4817 118.826 93.3617V81.1217C118.826 81.0017 118.886 80.9417 119.006 80.9417H123.362C124.61 80.9417 125.606 81.2717 126.35 81.9317C127.094 82.5797 127.466 83.4497 127.466 84.5417V89.9417C127.466 91.0337 127.094 91.9097 126.35 92.5697C125.606 93.2177 124.61 93.5417 123.362 93.5417H119.006ZM120.554 91.9757C120.554 92.0237 120.578 92.0477 120.626 92.0477H123.434C124.13 92.0477 124.682 91.8377 125.09 91.4177C125.51 90.9857 125.726 90.4097 125.738 89.6897V84.7937C125.738 84.0737 125.528 83.5037 125.108 83.0837C124.7 82.6517 124.142 82.4357 123.434 82.4357H120.626C120.578 82.4357 120.554 82.4597 120.554 82.5077V91.9757ZM132.997 84.2357C133.729 84.2357 134.365 84.3677 134.905 84.6317C135.457 84.8837 135.877 85.2437 136.165 85.7117C136.465 86.1677 136.615 86.6897 136.615 87.2777V93.3617C136.615 93.4817 136.555 93.5417 136.435 93.5417H135.067C134.947 93.5417 134.887 93.4817 134.887 93.3617V92.7137C134.887 92.6537 134.857 92.6417 134.797 92.6777C134.485 93.0017 134.101 93.2537 133.645 93.4337C133.201 93.6017 132.703 93.6857 132.151 93.6857C131.263 93.6857 130.525 93.4637 129.937 93.0197C129.361 92.5637 129.073 91.8797 129.073 90.9677C129.073 90.0317 129.397 89.2997 130.045 88.7717C130.705 88.2317 131.623 87.9617 132.799 87.9617H134.815C134.863 87.9617 134.887 87.9377 134.887 87.8897V87.4037C134.887 86.8757 134.731 86.4677 134.419 86.1797C134.119 85.8797 133.657 85.7297 133.033 85.7297C132.529 85.7297 132.115 85.8317 131.791 86.0357C131.479 86.2277 131.287 86.4917 131.215 86.8277C131.179 86.9477 131.107 87.0017 130.999 86.9897L129.541 86.7917C129.421 86.7677 129.367 86.7197 129.379 86.6477C129.475 85.9397 129.853 85.3637 130.513 84.9197C131.173 84.4637 132.001 84.2357 132.997 84.2357ZM132.529 92.2277C133.165 92.2277 133.717 92.0597 134.185 91.7237C134.653 91.3877 134.887 90.9617 134.887 90.4457V89.3837C134.887 89.3357 134.863 89.3117 134.815 89.3117H133.123C132.415 89.3117 131.851 89.4497 131.431 89.7257C131.011 90.0017 130.801 90.3857 130.801 90.8777C130.801 91.3217 130.957 91.6577 131.269 91.8857C131.593 92.1137 132.013 92.2277 132.529 92.2277ZM142.17 93.6497C141.45 93.6497 140.814 93.5417 140.262 93.3257C139.722 93.1097 139.302 92.8157 139.002 92.4437C138.702 92.0597 138.552 91.6397 138.552 91.1837V90.9857C138.552 90.8657 138.612 90.8057 138.732 90.8057H140.028C140.148 90.8057 140.208 90.8657 140.208 90.9857V91.0757C140.208 91.4117 140.388 91.7057 140.748 91.9577C141.12 92.2097 141.588 92.3357 142.152 92.3357C142.692 92.3357 143.13 92.2217 143.466 91.9937C143.802 91.7537 143.97 91.4537 143.97 91.0937C143.97 90.7457 143.814 90.4877 143.502 90.3197C143.19 90.1397 142.686 89.9537 141.99 89.7617C141.306 89.5697 140.73 89.3777 140.262 89.1857C139.806 88.9817 139.416 88.6997 139.092 88.3397C138.78 87.9677 138.624 87.4937 138.624 86.9177C138.624 86.1137 138.936 85.4777 139.56 85.0097C140.196 84.5297 141.036 84.2897 142.08 84.2897C142.776 84.2897 143.388 84.4037 143.916 84.6317C144.456 84.8477 144.87 85.1537 145.158 85.5497C145.446 85.9457 145.59 86.3897 145.59 86.8817V86.9357C145.59 87.0557 145.53 87.1157 145.41 87.1157H144.15C144.03 87.1157 143.97 87.0557 143.97 86.9357V86.8817C143.97 86.5337 143.796 86.2457 143.448 86.0177C143.112 85.7777 142.65 85.6577 142.062 85.6577C141.534 85.6577 141.102 85.7597 140.766 85.9637C140.442 86.1677 140.28 86.4437 140.28 86.7917C140.28 87.1397 140.436 87.4037 140.748 87.5837C141.072 87.7637 141.588 87.9557 142.296 88.1597C142.992 88.3517 143.568 88.5437 144.024 88.7357C144.492 88.9157 144.888 89.1917 145.212 89.5637C145.536 89.9237 145.698 90.3977 145.698 90.9857C145.698 91.8017 145.374 92.4497 144.726 92.9297C144.09 93.4097 143.238 93.6497 142.17 93.6497ZM151.805 84.2537C152.789 84.2537 153.569 84.5417 154.145 85.1177C154.721 85.6817 155.009 86.4497 155.009 87.4217V93.3617C155.009 93.4817 154.949 93.5417 154.829 93.5417H153.461C153.341 93.5417 153.281 93.4817 153.281 93.3617V87.7637C153.281 87.1637 153.107 86.6777 152.759 86.3057C152.411 85.9337 151.949 85.7477 151.373 85.7477C150.809 85.7477 150.347 85.9337 149.987 86.3057C149.627 86.6777 149.447 87.1577 149.447 87.7457V93.3617C149.447 93.4817 149.387 93.5417 149.267 93.5417H147.899C147.779 93.5417 147.719 93.4817 147.719 93.3617V81.1217C147.719 81.0017 147.779 80.9417 147.899 80.9417H149.267C149.387 80.9417 149.447 81.0017 149.447 81.1217V85.2077C149.447 85.2317 149.453 85.2497 149.465 85.2617C149.489 85.2737 149.507 85.2677 149.519 85.2437C150.035 84.5837 150.797 84.2537 151.805 84.2537ZM164.855 86.7557C165.047 87.3677 165.143 88.0937 165.143 88.9337C165.143 89.8337 165.029 90.6017 164.801 91.2377C164.537 92.0177 164.117 92.6237 163.541 93.0557C162.977 93.4757 162.263 93.6857 161.399 93.6857C160.979 93.6857 160.589 93.6017 160.229 93.4337C159.869 93.2657 159.557 93.0317 159.293 92.7317C159.269 92.7077 159.245 92.7017 159.221 92.7137C159.209 92.7257 159.203 92.7437 159.203 92.7677V93.3617C159.203 93.4817 159.143 93.5417 159.023 93.5417H157.655C157.535 93.5417 157.475 93.4817 157.475 93.3617V81.1217C157.475 81.0017 157.535 80.9417 157.655 80.9417H159.023C159.143 80.9417 159.203 81.0017 159.203 81.1217V85.1357C159.203 85.1597 159.209 85.1777 159.221 85.1897C159.245 85.2017 159.269 85.1957 159.293 85.1717C159.557 84.8717 159.869 84.6437 160.229 84.4877C160.601 84.3197 160.991 84.2357 161.399 84.2357C162.299 84.2357 163.037 84.4577 163.613 84.9017C164.189 85.3457 164.603 85.9637 164.855 86.7557ZM162.947 91.2017C163.247 90.6377 163.397 89.8937 163.397 88.9697C163.397 87.9857 163.205 87.1937 162.821 86.5937C162.473 86.0177 161.939 85.7297 161.219 85.7297C160.547 85.7297 160.037 86.0357 159.689 86.6477C159.377 87.1997 159.221 87.9677 159.221 88.9517C159.221 89.9357 159.365 90.6917 159.653 91.2197C160.013 91.8677 160.541 92.1917 161.237 92.1917C162.029 92.1917 162.599 91.8617 162.947 91.2017ZM171.045 93.6857C170.157 93.6857 169.383 93.4637 168.723 93.0197C168.063 92.5637 167.601 91.9337 167.337 91.1297C167.121 90.4817 167.013 89.7497 167.013 88.9337C167.013 88.0817 167.115 87.3617 167.319 86.7737C167.583 85.9817 168.045 85.3637 168.705 84.9197C169.365 84.4637 170.151 84.2357 171.063 84.2357C171.927 84.2357 172.677 84.4637 173.313 84.9197C173.961 85.3637 174.423 85.9757 174.699 86.7557C174.915 87.3677 175.023 88.0877 175.023 88.9157C175.023 89.7557 174.915 90.4937 174.699 91.1297C174.435 91.9337 173.979 92.5637 173.331 93.0197C172.683 93.4637 171.921 93.6857 171.045 93.6857ZM171.045 92.1917C171.525 92.1917 171.945 92.0597 172.305 91.7957C172.665 91.5197 172.923 91.1357 173.079 90.6437C173.211 90.1877 173.277 89.6237 173.277 88.9517C173.277 88.2797 173.217 87.7217 173.097 87.2777C172.941 86.7857 172.683 86.4077 172.323 86.1437C171.963 85.8677 171.525 85.7297 171.009 85.7297C170.517 85.7297 170.091 85.8677 169.731 86.1437C169.371 86.4077 169.113 86.7857 168.957 87.2777C168.825 87.6977 168.759 88.2557 168.759 88.9517C168.759 89.6477 168.825 90.2117 168.957 90.6437C169.101 91.1357 169.353 91.5197 169.713 91.7957C170.085 92.0597 170.529 92.1917 171.045 92.1917ZM180.633 84.2357C181.365 84.2357 182.001 84.3677 182.541 84.6317C183.093 84.8837 183.513 85.2437 183.801 85.7117C184.101 86.1677 184.251 86.6897 184.251 87.2777V93.3617C184.251 93.4817 184.191 93.5417 184.071 93.5417H182.703C182.583 93.5417 182.523 93.4817 182.523 93.3617V92.7137C182.523 92.6537 182.493 92.6417 182.433 92.6777C182.121 93.0017 181.737 93.2537 181.281 93.4337C180.837 93.6017 180.339 93.6857 179.787 93.6857C178.899 93.6857 178.161 93.4637 177.573 93.0197C176.997 92.5637 176.709 91.8797 176.709 90.9677C176.709 90.0317 177.033 89.2997 177.681 88.7717C178.341 88.2317 179.259 87.9617 180.435 87.9617H182.451C182.499 87.9617 182.523 87.9377 182.523 87.8897V87.4037C182.523 86.8757 182.367 86.4677 182.055 86.1797C181.755 85.8797 181.293 85.7297 180.669 85.7297C180.165 85.7297 179.751 85.8317 179.427 86.0357C179.115 86.2277 178.923 86.4917 178.851 86.8277C178.815 86.9477 178.743 87.0017 178.635 86.9897L177.177 86.7917C177.057 86.7677 177.003 86.7197 177.015 86.6477C177.111 85.9397 177.489 85.3637 178.149 84.9197C178.809 84.4637 179.637 84.2357 180.633 84.2357ZM180.165 92.2277C180.801 92.2277 181.353 92.0597 181.821 91.7237C182.289 91.3877 182.523 90.9617 182.523 90.4457V89.3837C182.523 89.3357 182.499 89.3117 182.451 89.3117H180.759C180.051 89.3117 179.487 89.4497 179.067 89.7257C178.647 90.0017 178.437 90.3857 178.437 90.8777C178.437 91.3217 178.593 91.6577 178.905 91.8857C179.229 92.1137 179.649 92.2277 180.165 92.2277ZM190.598 84.2897C190.982 84.2897 191.33 84.3677 191.642 84.5237C191.726 84.5597 191.756 84.6317 191.732 84.7397L191.444 86.0897C191.432 86.1977 191.36 86.2337 191.228 86.1977C191.024 86.1137 190.784 86.0717 190.508 86.0717L190.256 86.0897C189.692 86.1137 189.224 86.3117 188.852 86.6837C188.492 87.0437 188.312 87.5177 188.312 88.1057V93.3617C188.312 93.4817 188.252 93.5417 188.132 93.5417H186.764C186.644 93.5417 186.584 93.4817 186.584 93.3617V84.5597C186.584 84.4397 186.644 84.3797 186.764 84.3797H188.132C188.252 84.3797 188.312 84.4397 188.312 84.5597V85.5137C188.312 85.5497 188.318 85.5737 188.33 85.5857C188.354 85.5857 188.372 85.5737 188.384 85.5497C188.924 84.7097 189.662 84.2897 190.598 84.2897ZM198.811 81.1217C198.811 81.0017 198.871 80.9417 198.991 80.9417H200.359C200.479 80.9417 200.539 81.0017 200.539 81.1217V93.3617C200.539 93.4817 200.479 93.5417 200.359 93.5417H198.991C198.871 93.5417 198.811 93.4817 198.811 93.3617V92.7677C198.811 92.7437 198.799 92.7257 198.775 92.7137C198.763 92.7017 198.745 92.7077 198.721 92.7317C198.457 93.0317 198.145 93.2657 197.785 93.4337C197.425 93.6017 197.035 93.6857 196.615 93.6857C195.751 93.6857 195.031 93.4757 194.455 93.0557C193.891 92.6237 193.477 92.0177 193.213 91.2377C192.985 90.6017 192.871 89.8337 192.871 88.9337C192.871 88.0937 192.967 87.3677 193.159 86.7557C193.411 85.9637 193.825 85.3457 194.401 84.9017C194.977 84.4577 195.715 84.2357 196.615 84.2357C197.023 84.2357 197.407 84.3197 197.767 84.4877C198.139 84.6437 198.457 84.8717 198.721 85.1717C198.745 85.1957 198.763 85.2017 198.775 85.1897C198.799 85.1777 198.811 85.1597 198.811 85.1357V81.1217ZM198.361 91.2197C198.637 90.7157 198.775 89.9597 198.775 88.9517C198.775 87.9437 198.625 87.1757 198.325 86.6477C197.977 86.0357 197.467 85.7297 196.795 85.7297C196.075 85.7297 195.541 86.0177 195.193 86.5937C194.809 87.1937 194.617 87.9857 194.617 88.9697C194.617 89.8937 194.767 90.6377 195.067 91.2017C195.415 91.8617 195.985 92.1917 196.777 92.1917C197.473 92.1917 198.001 91.8677 198.361 91.2197Z" fill="#B9BBBD"/>
<path d="M20.16 53L13.152 40.28H11.184V53H2.976V19.304H16.752C19.408 19.304 21.664 19.768 23.52 20.696C25.408 21.624 26.816 22.904 27.744 24.536C28.672 26.136 29.136 27.928 29.136 29.912C29.136 32.152 28.496 34.152 27.216 35.912C25.968 37.672 24.112 38.92 21.648 39.656L29.424 53H20.16ZM11.184 34.472H16.272C17.776 34.472 18.896 34.104 19.632 33.368C20.4 32.632 20.784 31.592 20.784 30.248C20.784 28.968 20.4 27.96 19.632 27.224C18.896 26.488 17.776 26.12 16.272 26.12H11.184V34.472ZM46.4805 53.384C43.8565 53.384 41.4885 52.824 39.3765 51.704C37.2965 50.584 35.6485 48.984 34.4325 46.904C33.2485 44.824 32.6565 42.392 32.6565 39.608C32.6565 36.856 33.2645 34.44 34.4805 32.36C35.6965 30.248 37.3605 28.632 39.4725 27.512C41.5845 26.392 43.9525 25.832 46.5765 25.832C49.2005 25.832 51.5685 26.392 53.6805 27.512C55.7925 28.632 57.4565 30.248 58.6725 32.36C59.8885 34.44 60.4965 36.856 60.4965 39.608C60.4965 42.36 59.8725 44.792 58.6245 46.904C57.4085 48.984 55.7285 50.584 53.5845 51.704C51.4725 52.824 49.1045 53.384 46.4805 53.384ZM46.4805 46.28C48.0485 46.28 49.3765 45.704 50.4645 44.552C51.5845 43.4 52.1445 41.752 52.1445 39.608C52.1445 37.464 51.6005 35.816 50.5125 34.664C49.4565 33.512 48.1445 32.936 46.5765 32.936C44.9765 32.936 43.6485 33.512 42.5925 34.664C41.5365 35.784 41.0085 37.432 41.0085 39.608C41.0085 41.752 41.5205 43.4 42.5445 44.552C43.6005 45.704 44.9125 46.28 46.4805 46.28ZM99.027 25.928C102.355 25.928 104.995 26.936 106.947 28.952C108.931 30.968 109.923 33.768 109.923 37.352V53H101.763V38.456C101.763 36.728 101.299 35.4 100.371 34.472C99.475 33.512 98.227 33.032 96.627 33.032C95.027 33.032 93.763 33.512 92.835 34.472C91.939 35.4 91.491 36.728 91.491 38.456V53H83.331V38.456C83.331 36.728 82.867 35.4 81.939 34.472C81.043 33.512 79.795 33.032 78.195 33.032C76.595 33.032 75.331 33.512 74.403 34.472C73.507 35.4 73.059 36.728 73.059 38.456V53H64.851V26.216H73.059V29.576C73.891 28.456 74.979 27.576 76.323 26.936C77.667 26.264 79.187 25.928 80.883 25.928C82.899 25.928 84.691 26.36 86.259 27.224C87.859 28.088 89.107 29.32 90.003 30.92C90.931 29.448 92.195 28.248 93.795 27.32C95.395 26.392 97.139 25.928 99.027 25.928ZM114.032 39.56C114.032 36.808 114.544 34.392 115.568 32.312C116.624 30.232 118.048 28.632 119.84 27.512C121.632 26.392 123.632 25.832 125.84 25.832C127.6 25.832 129.2 26.2 130.64 26.936C132.112 27.672 133.264 28.664 134.096 29.912V17.48H142.304V53H134.096V49.16C133.328 50.44 132.224 51.464 130.784 52.232C129.376 53 127.728 53.384 125.84 53.384C123.632 53.384 121.632 52.824 119.84 51.704C118.048 50.552 116.624 48.936 115.568 46.856C114.544 44.744 114.032 42.312 114.032 39.56ZM134.096 39.608C134.096 37.56 133.52 35.944 132.368 34.76C131.248 33.576 129.872 32.984 128.24 32.984C126.608 32.984 125.216 33.576 124.064 34.76C122.944 35.912 122.384 37.512 122.384 39.56C122.384 41.608 122.944 43.24 124.064 44.456C125.216 45.64 126.608 46.232 128.24 46.232C129.872 46.232 131.248 45.64 132.368 44.456C133.52 43.272 134.096 41.656 134.096 39.608ZM160.434 53.384C157.81 53.384 155.442 52.824 153.33 51.704C151.25 50.584 149.602 48.984 148.386 46.904C147.202 44.824 146.61 42.392 146.61 39.608C146.61 36.856 147.218 34.44 148.434 32.36C149.65 30.248 151.314 28.632 153.426 27.512C155.538 26.392 157.906 25.832 160.53 25.832C163.154 25.832 165.522 26.392 167.634 27.512C169.746 28.632 171.41 30.248 172.626 32.36C173.842 34.44 174.45 36.856 174.45 39.608C174.45 42.36 173.826 44.792 172.578 46.904C171.362 48.984 169.682 50.584 167.538 51.704C165.426 52.824 163.058 53.384 160.434 53.384ZM160.434 46.28C162.002 46.28 163.33 45.704 164.418 44.552C165.538 43.4 166.098 41.752 166.098 39.608C166.098 37.464 165.554 35.816 164.466 34.664C163.41 33.512 162.098 32.936 160.53 32.936C158.93 32.936 157.602 33.512 156.546 34.664C155.49 35.784 154.962 37.432 154.962 39.608C154.962 41.752 155.474 43.4 156.498 44.552C157.554 45.704 158.866 46.28 160.434 46.28ZM187.012 17.48V53H178.804V17.48H187.012Z" fill="#333333"/>
<path d="M196.8 53.384C195.36 53.384 194.176 52.968 193.248 52.136C192.352 51.272 191.904 50.216 191.904 48.968C191.904 47.688 192.352 46.616 193.248 45.752C194.176 44.888 195.36 44.456 196.8 44.456C198.208 44.456 199.36 44.888 200.256 45.752C201.184 46.616 201.648 47.688 201.648 48.968C201.648 50.216 201.184 51.272 200.256 52.136C199.36 52.968 198.208 53.384 196.8 53.384Z" fill="#E95322"/>
</svg>
