<svg width="17" height="16" viewBox="0 0 17 16" fill="none" xmlns="http://www.w3.org/2000/svg">
<path d="M13.5311 9.64373C15.2605 9.64373 16.6664 11.0315 16.6664 12.7385C16.6664 14.4446 15.2605 15.8333 13.5311 15.8333C11.8018 15.8333 10.3959 14.4446 10.3959 12.7385C10.3959 11.0315 11.8018 9.64373 13.5311 9.64373ZM13.5311 11.0953C12.6125 11.0953 11.8665 11.8318 11.8665 12.7385C11.8665 13.6443 12.6125 14.3817 13.5311 14.3817C14.4497 14.3817 15.1958 13.6443 15.1958 12.7385C15.1958 11.8318 14.4497 11.0953 13.5311 11.0953ZM6.76429 12.0124C7.17017 12.0124 7.49957 12.3376 7.49957 12.7382C7.49957 13.1389 7.17017 13.464 6.76429 13.464H0.735967C0.330092 13.464 0.000686262 13.1389 0.000686262 12.7382C0.000686262 12.3376 0.330092 12.0124 0.735967 12.0124H6.76429ZM3.13524 0C4.86462 0 6.27048 1.38869 6.27048 3.0948C6.27048 4.80091 4.86462 6.18961 3.13524 6.18961C1.40684 6.18961 0 4.80091 0 3.0948C0 1.38869 1.40684 0 3.13524 0ZM3.13524 1.4516C2.21761 1.4516 1.47056 2.18901 1.47056 3.0948C1.47056 4.0006 2.21761 4.73801 3.13524 4.73801C4.05385 4.73801 4.79992 4.0006 4.79992 3.0948C4.79992 2.18901 4.05385 1.4516 3.13524 1.4516ZM15.9314 2.3692C16.3373 2.3692 16.6667 2.69436 16.6667 3.095C16.6667 3.49564 16.3373 3.82079 15.9314 3.82079H9.90208C9.4962 3.82079 9.1668 3.49564 9.1668 3.095C9.1668 2.69436 9.4962 2.3692 9.90208 2.3692H15.9314Z" fill="white"/>
</svg>
